<!--?xml version="1.0" encoding="utf-8"?-->
<!-- Generator: Adobe Illustrator 18.1.1, SVG Export Plug-In . SVG Version: 6.00 Build 0)  -->

<svg version="1.1" id="_x32_" xmlns="http://www.w3.org/2000/svg" xmlns:xlink="http://www.w3.org/1999/xlink" x="0px" y="0px" viewBox="0 0 512 512" style="width: 100%; height: 100%; opacity: 1;" xml:space="preserve">
<g>
	<path class="st0" d="M194.651,414.476c16.23,0,61.349,0,61.349,0s45.111,0,61.35,0c16.222,0,23.587-23.603,14.198-40.285
		c-7.072-12.572-18.659-26.826-37.516-34.921c-10.793,7.556-23.905,12-38.032,12c-14.143,0-27.238-4.444-38.032-12
		c-18.864,8.095-30.444,22.349-37.523,34.921C171.064,390.873,178.421,414.476,194.651,414.476z" style="fill: rgb(255, 255, 255);"></path>
	<path class="st0" d="M256,335.476c27.714,0,50.167-22.444,50.167-50.159v-12.016c0-27.714-22.452-50.174-50.167-50.174
		c-27.714,0-50.174,22.46-50.174,50.174v12.016C205.826,313.032,228.286,335.476,256,335.476z" style="fill: rgb(255, 255, 255);"></path>
	<path class="st0" d="M404.977,56.889h-75.834v16.254c0,31.365-25.524,56.889-56.889,56.889h-32.508
		c-31.365,0-56.889-25.524-56.889-56.889V56.889h-75.833c-25.445,0-46.072,20.627-46.072,46.071v362.969
		c0,25.444,20.627,46.071,46.072,46.071h297.952c25.444,0,46.071-20.627,46.071-46.071V102.96
		C451.048,77.516,430.421,56.889,404.977,56.889z M402.286,463.238H109.714V150.349h292.572V463.238z" style="fill: rgb(255, 255, 255);"></path>
	<path class="st0" d="M239.746,113.778h32.508c22.406,0,40.635-18.23,40.635-40.635V40.635C312.889,18.23,294.659,0,272.254,0
		h-32.508c-22.405,0-40.635,18.23-40.635,40.635v32.508C199.111,95.547,217.341,113.778,239.746,113.778z M231.619,40.635
		c0-4.492,3.635-8.127,8.127-8.127h32.508c4.493,0,8.127,3.635,8.127,8.127v16.254c0,4.492-3.634,8.127-8.127,8.127h-32.508
		c-4.492,0-8.127-3.635-8.127-8.127V40.635z" style="fill: rgb(255, 255, 255);"></path>
</g>
</svg>
