<!--?xml version="1.0" encoding="utf-8"?-->
<!-- Generator: Adobe Illustrator 18.1.1, SVG Export Plug-In . SVG Version: 6.00 Build 0)  -->

<svg version="1.1" id="_x32_" xmlns="http://www.w3.org/2000/svg" xmlns:xlink="http://www.w3.org/1999/xlink" x="0px" y="0px" viewBox="0 0 512 512" style="width: 100%; height: 100%;" xml:space="preserve">
<g>
	<path class="st0" d="M437.015,74.978C390.768,28.686,326.619-0.014,256,0C185.381-0.014,121.231,28.686,74.978,74.978
		C28.694,121.224-0.015,185.381,0,256c-0.015,70.612,28.694,134.762,74.978,181.015C121.231,483.314,185.381,512.008,256,512
		c70.619,0.008,134.768-28.686,181.015-74.985c46.299-46.253,75-110.403,74.985-181.015
		C512.014,185.381,483.314,121.224,437.015,74.978z M403.56,403.552c-37.851,37.798-89.866,61.112-147.56,61.12
		c-57.694-0.008-109.709-23.321-147.56-61.12C70.649,365.716,47.336,313.702,47.321,256c0.014-57.702,23.328-109.716,61.119-147.552
		C146.291,70.649,198.306,47.343,256,47.329c57.694,0.014,109.709,23.32,147.56,61.119c37.791,37.836,61.104,89.851,61.119,147.552
		C464.664,313.702,441.351,365.716,403.56,403.552z" style="fill: rgb(255, 255, 255);"></path>
	<path class="st0" d="M251.694,194.328c21.381,0,38.732-17.343,38.732-38.724c0-21.396-17.351-38.724-38.732-38.724
		c-21.38,0-38.724,17.328-38.724,38.724C212.97,176.986,230.314,194.328,251.694,194.328z" style="fill: rgb(255, 255, 255);"></path>
	<path class="st0" d="M299.164,362.806h-5.262c-5.387,0-9.761-4.358-9.761-9.746V216.731c0-1.79-0.94-3.462-2.47-4.38
		c-1.53-0.933-3.44-0.977-5.023-0.142l-66.544,36.986c-19.358,9.679-10.068,21.239-2.858,20.94c7.202-0.284,28.679-2.41,28.679-2.41
		v85.336c0,5.388-4.373,9.746-9.761,9.746h-10.336c-2.686,0-4.88,2.194-4.88,4.88v21.284c0,2.687,2.194,4.881,4.88,4.881h83.336
		c2.694,0,4.881-2.194,4.881-4.881v-21.284C304.045,365,301.858,362.806,299.164,362.806z" style="fill: rgb(255, 255, 255);"></path>
</g>
</svg>
