<!--?xml version="1.0" encoding="utf-8"?-->
<!-- Generator: Adobe Illustrator 18.1.1, SVG Export Plug-In . SVG Version: 6.00 Build 0)  -->

<svg version="1.1" id="_x32_" xmlns="http://www.w3.org/2000/svg" xmlns:xlink="http://www.w3.org/1999/xlink" x="0px" y="0px" viewBox="0 0 512 512" style="width: 100%; height: 100%; opacity: 1;" xml:space="preserve">
<g>
	<path class="st0" d="M337.593,147.277c23.417-7.69,42.749-20.218,56.567-35.324c6.896-7.564,12.434-15.782,16.303-24.473
		c3.86-8.684,6.058-17.872,6.058-27.162c0.008-6.174-0.986-12.372-3.044-18.322c-2.299-6.64-5.639-12.667-9.771-17.887
		c-6.191-7.852-14.12-13.895-22.89-17.957C372.047,2.096,362.415,0,352.59,0c-7.2,0-14.494,1.134-21.592,3.472
		c-10.657,3.495-20.878,9.763-29.492,18.772c-8.628,9.018-15.619,20.739-20.21,34.905c-5.996,18.423-23.953,60.226-24.45,61.251
		h-1.708c-0.505-1.025-18.454-42.828-24.451-61.251c-3.068-9.452-7.176-17.809-12.155-24.994
		c-7.456-10.788-16.846-18.935-27.083-24.264C181.211,2.548,170.182-0.008,159.394,0c-13.087,0.007-25.872,3.728-36.684,10.873
		c-5.398,3.566-10.307,8.008-14.423,13.235c-4.14,5.22-7.48,11.247-9.779,17.887c-2.066,5.958-3.045,12.156-3.037,18.322
		c0,6.183,0.97,12.342,2.765,18.323c3.146,10.47,8.746,20.404,16.249,29.475c11.278,13.608,26.874,25.328,45.817,33.74
		c18.936,8.404,41.258,13.476,65.91,13.476c13.966-0.007,29.243,0.117,29.779,0c0.536,0.117,15.806-0.007,29.786,0
		C304.552,155.332,321.988,152.396,337.593,147.277z M317.048,48.458c4.932-7.122,10.68-11.968,16.746-15.138
		c6.074-3.168,12.505-4.637,18.796-4.652c7.627,0,14.975,2.206,20.862,6.12c2.968,1.957,5.569,4.326,7.744,7.083
		c2.174,2.757,3.93,5.903,5.18,9.499c0.979,2.819,1.453,5.779,1.46,8.94c0,3.168-0.497,6.547-1.562,10.089
		c-1.848,6.206-5.46,12.909-10.873,19.433c-8.078,9.779-20.14,19.068-35.348,25.81c-15.223,6.757-33.561,11.006-54.276,11.006
		c-1.11,0-2.19-0.016-3.231-0.047c7.534-12.629,16.637-31.752,26.019-60.598C310.851,58.99,313.755,53.22,317.048,48.458z
		 M127.736,75.836c-2.462-5.53-3.589-10.781-3.589-15.518c0-3.169,0.482-6.12,1.46-8.932l0.008-0.016
		c1.243-3.596,2.998-6.742,5.181-9.499c3.254-4.132,7.495-7.41,12.411-9.686c4.909-2.276,10.47-3.518,16.187-3.518
		c4.194,0,8.45,0.66,12.621,2.042c6.26,2.066,12.31,5.709,17.74,11.371c5.413,5.662,10.245,13.405,13.67,23.93
		c9.375,28.838,18.485,47.961,26.02,60.598c-1.048,0.023-2.12,0.039-3.232,0.039c-15.782,0-30.19-2.462-42.889-6.625
		c-19.045-6.229-34.237-16.35-44.326-27.41C133.942,87.084,130.175,81.344,127.736,75.836z" style="fill: rgb(255, 255, 255);"></path>
	<polygon class="st0" points="271.907,177.957 271.907,273.39 454.835,273.39 454.835,271.969 454.835,240.628 454.835,177.957 	" style="fill: rgb(255, 255, 255);"></polygon>
	<polygon class="st0" points="57.165,240.628 57.165,271.969 57.165,273.39 240.093,273.39 240.093,177.957 57.165,177.957 	" style="fill: rgb(255, 255, 255);"></polygon>
	<path class="st0" d="M271.907,512h121.934c24.901,0,45.088-20.186,45.088-45.088V305.204H271.907V512z" style="fill: rgb(255, 255, 255);"></path>
	<path class="st0" d="M73.072,466.912c0,24.901,20.187,45.088,45.087,45.088h121.934V305.204H73.072V466.912z" style="fill: rgb(255, 255, 255);"></path>
</g>
</svg>
