<?xml version="1.0" standalone="no"?>
<!DOCTYPE svg PUBLIC "-//W3C//DTD SVG 20010904//EN"
 "http://www.w3.org/TR/2001/REC-SVG-20010904/DTD/svg10.dtd">
<svg version="1.0" xmlns="http://www.w3.org/2000/svg"
 width="206.000000pt" height="206.000000pt" viewBox="0 0 206.000000 206.000000"
 preserveAspectRatio="xMidYMid meet">
<metadata>
Created by potrace 1.14, written by Peter Selinger 2001-2017
</metadata>
<g transform="translate(0.000000,206.000000) scale(0.100000,-0.100000)"
fill="#000000" stroke="none">
<path d="M1100 1684 c0 -5 192 -340 316 -551 l48 -83 56 98 c31 53 114 195
183 315 70 120 127 220 127 223 0 2 -164 4 -365 4 -201 0 -365 -3 -365 -6z"/>
<path d="M240 1293 c0 -5 23 -46 51 -93 27 -47 83 -141 122 -210 39 -69 79
-137 87 -151 8 -14 35 -61 59 -104 36 -64 45 -75 53 -60 6 9 88 152 184 317
96 165 174 302 174 304 0 2 -164 4 -365 4 -201 0 -365 -3 -365 -7z"/>
<path d="M1062 943 c-22 -37 -50 -86 -62 -108 -12 -22 -43 -76 -69 -120 -25
-44 -50 -88 -56 -97 -60 -104 -135 -238 -135 -242 0 -2 164 -4 365 -4 201 0
365 2 365 5 0 3 -15 30 -34 61 -18 32 -100 172 -181 312 -81 140 -148 256
-150 258 -1 1 -20 -28 -43 -65z"/>
</g>
</svg>
