<svg width="400" height="22" viewBox="0 0 400 22" fill="none" xmlns="http://www.w3.org/2000/svg">
<path d="M1 11L2 10.3721L3 9.74667L4 9.12619L5 8.5131L6 7.90983L7 7.31876L8 6.74221L9 6.18246L10 5.64173L11 5.12215L12 4.62576L13 4.15453L14 3.71031L15 3.29487L16 2.90983L17 2.55672L18 2.23693L19 1.95173L20 1.70223L21 1.48943L22 1.31417L23 1.17712L24 1.07885L25 1.01973L26 1L27 1.01973L28 1.07885L29 1.17712L30 1.31417L31 1.48943L32 1.70223L33 1.95173L34 2.23693L35 2.55672L36 2.90983L37 3.29487L38 3.71031L39 4.15453L40 4.62576L41 5.12215L42 5.64173L43 6.18246L44 6.74221L45 7.31876L46 7.90983L47 8.5131L48 9.12619L49 9.74667L50 10.3721L51 11L52 11.6279L53 12.2533L54 12.8738L55 13.4869L56 14.0902L57 14.6812L58 15.2578L59 15.8175L60 16.3583L61 16.8779L62 17.3742L63 17.8455L64 18.2897L65 18.7051L66 19.0902L67 19.4433L68 19.7631L69 20.0483L70 20.2978L71 20.5106L72 20.6858L73 20.8229L74 20.9212L75 20.9803L76 21L77 20.9803L78 20.9212L79 20.8229L80 20.6858L81 20.5106L82 20.2978L83 20.0483L84 19.7631L85 19.4433L86 19.0902L87 18.7051L88 18.2897L89 17.8455L90 17.3742L91 16.8779L92 16.3583L93 15.8175L94 15.2578L95 14.6812L96 14.0902L97 13.4869L98 12.8738L99 12.2533L100 11.6279L101 11L102 10.3721L103 9.74667L104 9.12619L105 8.5131L106 7.90983L107 7.31876L108 6.74221L109 6.18246L110 5.64173L111 5.12215L112 4.62576L113 4.15453L114 3.71031L115 3.29487L116 2.90983L117 2.55672L118 2.23693L119 1.95173L120 1.70223L121 1.48943L122 1.31417L123 1.17712L124 1.07885L125 1.01973L126 1L127 1.01973L128 1.07885L129 1.17712L130 1.31417L131 1.48943L132 1.70223L133 1.95173L134 2.23693L135 2.55672L136 2.90983L137 3.29487L138 3.71031L139 4.15453L140 4.62576L141 5.12215L142 5.64173L143 6.18246L144 6.74221L145 7.31876L146 7.90983L147 8.5131L148 9.12619L149 9.74667L150 10.3721L151 11L152 11.6279L153 12.2533L154 12.8738L155 13.4869L156 14.0902L157 14.6812L158 15.2578L159 15.8175L160 16.3583L161 16.8779L162 17.3742L163 17.8455L164 18.2897L165 18.7051L166 19.0902L167 19.4433L168 19.7631L169 20.0483L170 20.2978L171 20.5106L172 20.6858L173 20.8229L174 20.9212L175 20.9803L176 21L177 20.9803L178 20.9212L179 20.8229L180 20.6858L181 20.5106L182 20.2978L183 20.0483L184 19.7631L185 19.4433L186 19.0902L187 18.7051L188 18.2897L189 17.8455L190 17.3742L191 16.8779L192 16.3583L193 15.8175L194 15.2578L195 14.6812L196 14.0902L197 13.4869L198 12.8738L199 12.2533L200 11.6279L201 11L202 10.3721L203 9.74667L204 9.12619L205 8.5131L206 7.90983L207 7.31876L208 6.74221L209 6.18246L210 5.64173L211 5.12215L212 4.62576L213 4.15453L214 3.71031L215 3.29487L216 2.90983L217 2.55672L218 2.23693L219 1.95173L220 1.70223L221 1.48943L222 1.31417L223 1.17712L224 1.07885L225 1.01973L226 1L227 1.01973L228 1.07885L229 1.17712L230 1.31417L231 1.48943L232 1.70223L233 1.95173L234 2.23693L235 2.55672L236 2.90983L237 3.29487L238 3.71031L239 4.15453L240 4.62576L241 5.12215L242 5.64173L243 6.18246L244 6.74221L245 7.31876L246 7.90983L247 8.5131L248 9.12619L249 9.74667L250 10.3721L251 11L252 11.6279L253 12.2533L254 12.8738L255 13.4869L256 14.0902L257 14.6812L258 15.2578L259 15.8175L260 16.3583L261 16.8779L262 17.3742L263 17.8455L264 18.2897L265 18.7051L266 19.0902L267 19.4433L268 19.7631L269 20.0483L270 20.2978L271 20.5106L272 20.6858L273 20.8229L274 20.9212L275 20.9803L276 21L277 20.9803L278 20.9212L279 20.8229L280 20.6858L281 20.5106L282 20.2978L283 20.0483L284 19.7631L285 19.4433L286 19.0902L287 18.7051L288 18.2897L289 17.8455L290 17.3742L291 16.8779L292 16.3583L293 15.8175L294 15.2578L295 14.6812L296 14.0902L297 13.4869L298 12.8738L299 12.2533L300 11.6279L301 11L302 10.3721L303 9.74667L304 9.12619L305 8.5131L306 7.90983L307 7.31876L308 6.74221L309 6.18246L310 5.64173L311 5.12215L312 4.62576L313 4.15453L314 3.71031L315 3.29487L316 2.90983L317 2.55672L318 2.23693L319 1.95173L320 1.70223L321 1.48943L322 1.31417L323 1.17712L324 1.07885L325 1.01973L326 1L327 1.01973L328 1.07885L329 1.17712L330 1.31417L331 1.48943L332 1.70223L333 1.95173L334 2.23693L335 2.55672L336 2.90983L337 3.29487L338 3.71031L339 4.15453L340 4.62576L341 5.12215L342 5.64173L343 6.18246L344 6.74221L345 7.31876L346 7.90983L347 8.5131L348 9.12619L349 9.74667L350 10.3721L351 11L352 11.6279L353 12.2533L354 12.8738L355 13.4869L356 14.0902L357 14.6812L358 15.2578L359 15.8175L360 16.3583L361 16.8779L362 17.3742L363 17.8455L364 18.2897L365 18.7051L366 19.0902L367 19.4433L368 19.7631L369 20.0483L370 20.2978L371 20.5106L372 20.6858L373 20.8229L374 20.9212L375 20.9803L376 21L377 20.9803L378 20.9212L379 20.8229L380 20.6858L381 20.5106L382 20.2978L383 20.0483L384 19.7631L385 19.4433L386 19.0902L387 18.7051L388 18.2897L389 17.8455L390 17.3742L391 16.8779L392 16.3583L393 15.8175L394 15.2578L395 14.6812L396 14.0902L397 13.4869L398 12.8738L399 12.2533L400 11.6279" stroke="black" stroke-miterlimit="10" stroke-linecap="round" stroke-linejoin="round"/>
</svg>
