<svg width="400" height="26" viewBox="0 0 400 26" fill="none" xmlns="http://www.w3.org/2000/svg">
<path d="M1 13L2 12.3721L3 11.7467L4 11.1262L5 10.5131L6 9.90983L7 9.31876L8 8.74221L9 8.18246L10 7.64173L11 7.12215L12 6.62576L13 6.15453L14 5.71031L15 5.29487L16 4.90983L17 4.55672L18 4.23693L19 3.95173L20 3.70223L21 3.48943L22 3.31417L23 3.17712L24 3.07885L25 3.01973L26 3L27 3.01973L28 3.07885L29 3.17712L30 3.31417L31 3.48943L32 3.70223L33 3.95173L34 4.23693L35 4.55672L36 4.90983L37 5.29487L38 5.71031L39 6.15453L40 6.62576L41 7.12215L42 7.64173L43 8.18246L44 8.74221L45 9.31876L46 9.90983L47 10.5131L48 11.1262L49 11.7467L50 12.3721L51 13L52 13.6279L53 14.2533L54 14.8738L55 15.4869L56 16.0902L57 16.6812L58 17.2578L59 17.8175L60 18.3583L61 18.8779L62 19.3742L63 19.8455L64 20.2897L65 20.7051L66 21.0902L67 21.4433L68 21.7631L69 22.0483L70 22.2978L71 22.5106L72 22.6858L73 22.8229L74 22.9212L75 22.9803L76 23L77 22.9803L78 22.9212L79 22.8229L80 22.6858L81 22.5106L82 22.2978L83 22.0483L84 21.7631L85 21.4433L86 21.0902L87 20.7051L88 20.2897L89 19.8455L90 19.3742L91 18.8779L92 18.3583L93 17.8175L94 17.2578L95 16.6812L96 16.0902L97 15.4869L98 14.8738L99 14.2533L100 13.6279L101 13L102 12.3721L103 11.7467L104 11.1262L105 10.5131L106 9.90983L107 9.31876L108 8.74221L109 8.18246L110 7.64173L111 7.12215L112 6.62576L113 6.15453L114 5.71031L115 5.29487L116 4.90983L117 4.55672L118 4.23693L119 3.95173L120 3.70223L121 3.48943L122 3.31417L123 3.17712L124 3.07885L125 3.01973L126 3L127 3.01973L128 3.07885L129 3.17712L130 3.31417L131 3.48943L132 3.70223L133 3.95173L134 4.23693L135 4.55672L136 4.90983L137 5.29487L138 5.71031L139 6.15453L140 6.62576L141 7.12215L142 7.64173L143 8.18246L144 8.74221L145 9.31876L146 9.90983L147 10.5131L148 11.1262L149 11.7467L150 12.3721L151 13L152 13.6279L153 14.2533L154 14.8738L155 15.4869L156 16.0902L157 16.6812L158 17.2578L159 17.8175L160 18.3583L161 18.8779L162 19.3742L163 19.8455L164 20.2897L165 20.7051L166 21.0902L167 21.4433L168 21.7631L169 22.0483L170 22.2978L171 22.5106L172 22.6858L173 22.8229L174 22.9212L175 22.9803L176 23L177 22.9803L178 22.9212L179 22.8229L180 22.6858L181 22.5106L182 22.2978L183 22.0483L184 21.7631L185 21.4433L186 21.0902L187 20.7051L188 20.2897L189 19.8455L190 19.3742L191 18.8779L192 18.3583L193 17.8175L194 17.2578L195 16.6812L196 16.0902L197 15.4869L198 14.8738L199 14.2533L200 13.6279L201 13L202 12.3721L203 11.7467L204 11.1262L205 10.5131L206 9.90983L207 9.31876L208 8.74221L209 8.18246L210 7.64173L211 7.12215L212 6.62576L213 6.15453L214 5.71031L215 5.29487L216 4.90983L217 4.55672L218 4.23693L219 3.95173L220 3.70223L221 3.48943L222 3.31417L223 3.17712L224 3.07885L225 3.01973L226 3L227 3.01973L228 3.07885L229 3.17712L230 3.31417L231 3.48943L232 3.70223L233 3.95173L234 4.23693L235 4.55672L236 4.90983L237 5.29487L238 5.71031L239 6.15453L240 6.62576L241 7.12215L242 7.64173L243 8.18246L244 8.74221L245 9.31876L246 9.90983L247 10.5131L248 11.1262L249 11.7467L250 12.3721L251 13L252 13.6279L253 14.2533L254 14.8738L255 15.4869L256 16.0902L257 16.6812L258 17.2578L259 17.8175L260 18.3583L261 18.8779L262 19.3742L263 19.8455L264 20.2897L265 20.7051L266 21.0902L267 21.4433L268 21.7631L269 22.0483L270 22.2978L271 22.5106L272 22.6858L273 22.8229L274 22.9212L275 22.9803L276 23L277 22.9803L278 22.9212L279 22.8229L280 22.6858L281 22.5106L282 22.2978L283 22.0483L284 21.7631L285 21.4433L286 21.0902L287 20.7051L288 20.2897L289 19.8455L290 19.3742L291 18.8779L292 18.3583L293 17.8175L294 17.2578L295 16.6812L296 16.0902L297 15.4869L298 14.8738L299 14.2533L300 13.6279L301 13L302 12.3721L303 11.7467L304 11.1262L305 10.5131L306 9.90983L307 9.31876L308 8.74221L309 8.18246L310 7.64173L311 7.12215L312 6.62576L313 6.15453L314 5.71031L315 5.29487L316 4.90983L317 4.55672L318 4.23693L319 3.95173L320 3.70223L321 3.48943L322 3.31417L323 3.17712L324 3.07885L325 3.01973L326 3L327 3.01973L328 3.07885L329 3.17712L330 3.31417L331 3.48943L332 3.70223L333 3.95173L334 4.23693L335 4.55672L336 4.90983L337 5.29487L338 5.71031L339 6.15453L340 6.62576L341 7.12215L342 7.64173L343 8.18246L344 8.74221L345 9.31876L346 9.90983L347 10.5131L348 11.1262L349 11.7467L350 12.3721L351 13L352 13.6279L353 14.2533L354 14.8738L355 15.4869L356 16.0902L357 16.6812L358 17.2578L359 17.8175L360 18.3583L361 18.8779L362 19.3742L363 19.8455L364 20.2897L365 20.7051L366 21.0902L367 21.4433L368 21.7631L369 22.0483L370 22.2978L371 22.5106L372 22.6858L373 22.8229L374 22.9212L375 22.9803L376 23L377 22.9803L378 22.9212L379 22.8229L380 22.6858L381 22.5106L382 22.2978L383 22.0483L384 21.7631L385 21.4433L386 21.0902L387 20.7051L388 20.2897L389 19.8455L390 19.3742L391 18.8779L392 18.3583L393 17.8175L394 17.2578L395 16.6812L396 16.0902L397 15.4869L398 14.8738L399 14.2533L400 13.6279" stroke="black" stroke-width="5" stroke-miterlimit="10" stroke-linecap="round" stroke-linejoin="round"/>
</svg>
