<svg width="400" height="34" viewBox="0 0 400 34" fill="none" xmlns="http://www.w3.org/2000/svg">
<path d="M0 17L1 16.2463L2 15.4943L3 14.7456L4 14.0019L5 13.2649L6 12.5361L7 11.8173L8 11.11L9 10.4158L10 9.73615L11 9.07266L12 8.42677L13 7.79992L14 7.19349L15 6.60883L16 6.04725L17 5.50998L18 4.99822L19 4.51311L20 4.05573L21 3.62708L22 3.22813L23 2.85975L24 2.52277L25 2.21793L26 1.94591L27 1.70731L28 1.50267L29 1.33244L30 1.19698L31 1.09663L32 1.03157L33 1.00198L34 1.0079L35 1.04932L36 1.12617L37 1.23825L38 1.38533L39 1.56708L40 1.7831L41 2.0329L42 2.31593L43 2.63156L44 2.9791L45 3.35776L46 3.76671L47 4.20505L48 4.67179L49 5.1659L50 5.68629L51 6.2318L52 6.80122L53 7.39328L54 8.00667L55 8.64002L56 9.29194L57 9.96098L58 10.6456L59 11.3444L60 12.0557L61 12.778L62 13.5097L63 14.2491L64 14.9947L65 15.7447L66 16.4974L67 17.2513L68 18.0046L69 18.7558L70 19.503L71 20.2446L72 20.979L73 21.7046L74 22.4198L75 23.1229L76 23.8125L77 24.4869L78 25.1447L79 25.7844L80 26.4046L81 27.0039L82 27.581L83 28.1346L84 28.6635L85 29.1665L86 29.6425L87 30.0904L88 30.5092L89 30.8981L90 31.2561L91 31.5825L92 31.8764L93 32.1374L94 32.3647L95 32.5579L96 32.7166L97 32.8404L98 32.929L99 32.9822L100 33L101 32.9822L102 32.929L103 32.8404L104 32.7166L105 32.5579L106 32.3647L107 32.1374L108 31.8764L109 31.5825L110 31.2561L111 30.8981L112 30.5092L113 30.0904L114 29.6425L115 29.1665L116 28.6635L117 28.1346L118 27.581L119 27.0039L120 26.4046L121 25.7844L122 25.1447L123 24.4869L124 23.8125L125 23.1229L126 22.4198L127 21.7046L128 20.979L129 20.2446L130 19.503L131 18.7558L132 18.0046L133 17.2513L134 16.4974L135 15.7447L136 14.9947L137 14.2491L138 13.5097L139 12.778L140 12.0557L141 11.3444L142 10.6456L143 9.96098L144 9.29194L145 8.64002L146 8.00667L147 7.39328L148 6.80122L149 6.2318L150 5.68629L151 5.1659L152 4.67179L153 4.20505L154 3.76671L155 3.35776L156 2.9791L157 2.63156L158 2.31593L159 2.0329L160 1.7831L161 1.56708L162 1.38533L163 1.23825L164 1.12617L165 1.04932L166 1.0079L167 1.00198L168 1.03157L169 1.09663L170 1.19698L171 1.33244L172 1.50267L173 1.70731L174 1.94591L175 2.21793L176 2.52277L177 2.85975L178 3.22813L179 3.62708L180 4.05573L181 4.51311L182 4.99822L183 5.50998L184 6.04725L185 6.60883L186 7.19349L187 7.79992L188 8.42677L189 9.07266L190 9.73615L191 10.4158L192 11.11L193 11.8173L194 12.5361L195 13.2649L196 14.0019L197 14.7456L198 15.4943L199 16.2463L200 17L201 17.7537L202 18.5057L203 19.2544L204 19.9981L205 20.7351L206 21.4639L207 22.1827L208 22.89L209 23.5842L210 24.2638L211 24.9273L212 25.5732L213 26.2001L214 26.8065L215 27.3912L216 27.9528L217 28.49L218 29.0018L219 29.4869L220 29.9443L221 30.3729L222 30.7719L223 31.1403L224 31.4772L225 31.7821L226 32.0541L227 32.2927L228 32.4973L229 32.6676L230 32.803L231 32.9034L232 32.9684L233 32.998L234 32.9921L235 32.9507L236 32.8738L237 32.7617L238 32.6147L239 32.4329L240 32.2169L241 31.9671L242 31.6841L243 31.3684L244 31.0209L245 30.6422L246 30.2333L247 29.795L248 29.3282L249 28.8341L250 28.3137L251 27.7682L252 27.1988L253 26.6067L254 25.9933L255 25.36L256 24.7081L257 24.039L258 23.3544L259 22.6556L260 21.9443L261 21.222L262 20.4903L263 19.7509L264 19.0053L265 18.2553L266 17.5026L267 16.7487L268 15.9954L269 15.2442L270 14.497L271 13.7554L272 13.021L273 12.2954L274 11.5802L275 10.8771L276 10.1875L277 9.51312L278 8.85534L279 8.21564L280 7.59544L281 6.99612L282 6.41901L283 5.86539L284 5.3365L285 4.8335L286 4.35752L287 3.90961L288 3.49075L289 3.1019L290 2.7439L291 2.41755L292 2.12357L293 1.86263L294 1.6353L295 1.44208L296 1.2834L297 1.15962L298 1.07101L299 1.01776L300 1L301 1.01776L302 1.07101L303 1.15962L304 1.2834L305 1.44208L306 1.6353L307 1.86263L308 2.12357L309 2.41755L310 2.7439L311 3.1019L312 3.49075L313 3.90961L314 4.35752L315 4.8335L316 5.3365L317 5.86539L318 6.41901L319 6.99612L320 7.59544L321 8.21564L322 8.85534L323 9.51312L324 10.1875L325 10.8771L326 11.5802L327 12.2954L328 13.021L329 13.7554L330 14.497L331 15.2442L332 15.9954L333 16.7487L334 17.5026L335 18.2553L336 19.0053L337 19.7509L338 20.4903L339 21.222L340 21.9443L341 22.6556L342 23.3544L343 24.039L344 24.7081L345 25.36L346 25.9933L347 26.6067L348 27.1988L349 27.7682L350 28.3137L351 28.8341L352 29.3282L353 29.795L354 30.2333L355 30.6422L356 31.0209L357 31.3684L358 31.6841L359 31.9671L360 32.2169L361 32.4329L362 32.6147L363 32.7617L364 32.8738L365 32.9507L366 32.9921L367 32.998L368 32.9684L369 32.9034L370 32.803L371 32.6676L372 32.4973L373 32.2927L374 32.0541L375 31.7821L376 31.4772L377 31.1403L378 30.7719L379 30.3729L380 29.9443L381 29.4869L382 29.0018L383 28.49L384 27.9528L385 27.3912L386 26.8065L387 26.2001L388 25.5732L389 24.9273L390 24.2638L391 23.5842L392 22.89L393 22.1827L394 21.4639L395 20.7351L396 19.9981L397 19.2544L398 18.5057L399 17.7537" stroke="#C73B32" stroke-miterlimit="10" stroke-linecap="round" stroke-linejoin="round"/>
</svg>
