<svg width="400" height="26" viewBox="0 0 400 26" fill="none" xmlns="http://www.w3.org/2000/svg">
<path d="M0 13L1 12.3721L2 11.7467L3 11.1262L4 10.5131L5 9.90983L6 9.31876L7 8.74221L8 8.18246L9 7.64173L10 7.12215L11 6.62576L12 6.15453L13 5.71031L14 5.29487L15 4.90983L16 4.55672L17 4.23693L18 3.95173L19 3.70223L20 3.48943L21 3.31417L22 3.17712L23 3.07885L24 3.01973L25 3L26 3.01973L27 3.07885L28 3.17712L29 3.31417L30 3.48943L31 3.70223L32 3.95173L33 4.23693L34 4.55672L35 4.90983L36 5.29487L37 5.71031L38 6.15453L39 6.62576L40 7.12215L41 7.64173L42 8.18246L43 8.74221L44 9.31876L45 9.90983L46 10.5131L47 11.1262L48 11.7467L49 12.3721L50 13L51 13.6279L52 14.2533L53 14.8738L54 15.4869L55 16.0902L56 16.6812L57 17.2578L58 17.8175L59 18.3583L60 18.8779L61 19.3742L62 19.8455L63 20.2897L64 20.7051L65 21.0902L66 21.4433L67 21.7631L68 22.0483L69 22.2978L70 22.5106L71 22.6858L72 22.8229L73 22.9212L74 22.9803L75 23L76 22.9803L77 22.9212L78 22.8229L79 22.6858L80 22.5106L81 22.2978L82 22.0483L83 21.7631L84 21.4433L85 21.0902L86 20.7051L87 20.2897L88 19.8455L89 19.3742L90 18.8779L91 18.3583L92 17.8175L93 17.2578L94 16.6812L95 16.0902L96 15.4869L97 14.8738L98 14.2533L99 13.6279L100 13L101 12.3721L102 11.7467L103 11.1262L104 10.5131L105 9.90983L106 9.31876L107 8.74221L108 8.18246L109 7.64173L110 7.12215L111 6.62576L112 6.15453L113 5.71031L114 5.29487L115 4.90983L116 4.55672L117 4.23693L118 3.95173L119 3.70223L120 3.48943L121 3.31417L122 3.17712L123 3.07885L124 3.01973L125 3L126 3.01973L127 3.07885L128 3.17712L129 3.31417L130 3.48943L131 3.70223L132 3.95173L133 4.23693L134 4.55672L135 4.90983L136 5.29487L137 5.71031L138 6.15453L139 6.62576L140 7.12215L141 7.64173L142 8.18246L143 8.74221L144 9.31876L145 9.90983L146 10.5131L147 11.1262L148 11.7467L149 12.3721L150 13L151 13.6279L152 14.2533L153 14.8738L154 15.4869L155 16.0902L156 16.6812L157 17.2578L158 17.8175L159 18.3583L160 18.8779L161 19.3742L162 19.8455L163 20.2897L164 20.7051L165 21.0902L166 21.4433L167 21.7631L168 22.0483L169 22.2978L170 22.5106L171 22.6858L172 22.8229L173 22.9212L174 22.9803L175 23L176 22.9803L177 22.9212L178 22.8229L179 22.6858L180 22.5106L181 22.2978L182 22.0483L183 21.7631L184 21.4433L185 21.0902L186 20.7051L187 20.2897L188 19.8455L189 19.3742L190 18.8779L191 18.3583L192 17.8175L193 17.2578L194 16.6812L195 16.0902L196 15.4869L197 14.8738L198 14.2533L199 13.6279L200 13L201 12.3721L202 11.7467L203 11.1262L204 10.5131L205 9.90983L206 9.31876L207 8.74221L208 8.18246L209 7.64173L210 7.12215L211 6.62576L212 6.15453L213 5.71031L214 5.29487L215 4.90983L216 4.55672L217 4.23693L218 3.95173L219 3.70223L220 3.48943L221 3.31417L222 3.17712L223 3.07885L224 3.01973L225 3L226 3.01973L227 3.07885L228 3.17712L229 3.31417L230 3.48943L231 3.70223L232 3.95173L233 4.23693L234 4.55672L235 4.90983L236 5.29487L237 5.71031L238 6.15453L239 6.62576L240 7.12215L241 7.64173L242 8.18246L243 8.74221L244 9.31876L245 9.90983L246 10.5131L247 11.1262L248 11.7467L249 12.3721L250 13L251 13.6279L252 14.2533L253 14.8738L254 15.4869L255 16.0902L256 16.6812L257 17.2578L258 17.8175L259 18.3583L260 18.8779L261 19.3742L262 19.8455L263 20.2897L264 20.7051L265 21.0902L266 21.4433L267 21.7631L268 22.0483L269 22.2978L270 22.5106L271 22.6858L272 22.8229L273 22.9212L274 22.9803L275 23L276 22.9803L277 22.9212L278 22.8229L279 22.6858L280 22.5106L281 22.2978L282 22.0483L283 21.7631L284 21.4433L285 21.0902L286 20.7051L287 20.2897L288 19.8455L289 19.3742L290 18.8779L291 18.3583L292 17.8175L293 17.2578L294 16.6812L295 16.0902L296 15.4869L297 14.8738L298 14.2533L299 13.6279L300 13L301 12.3721L302 11.7467L303 11.1262L304 10.5131L305 9.90983L306 9.31876L307 8.74221L308 8.18246L309 7.64173L310 7.12215L311 6.62576L312 6.15453L313 5.71031L314 5.29487L315 4.90983L316 4.55672L317 4.23693L318 3.95173L319 3.70223L320 3.48943L321 3.31417L322 3.17712L323 3.07885L324 3.01973L325 3L326 3.01973L327 3.07885L328 3.17712L329 3.31417L330 3.48943L331 3.70223L332 3.95173L333 4.23693L334 4.55672L335 4.90983L336 5.29487L337 5.71031L338 6.15453L339 6.62576L340 7.12215L341 7.64173L342 8.18246L343 8.74221L344 9.31876L345 9.90983L346 10.5131L347 11.1262L348 11.7467L349 12.3721L350 13L351 13.6279L352 14.2533L353 14.8738L354 15.4869L355 16.0902L356 16.6812L357 17.2578L358 17.8175L359 18.3583L360 18.8779L361 19.3742L362 19.8455L363 20.2897L364 20.7051L365 21.0902L366 21.4433L367 21.7631L368 22.0483L369 22.2978L370 22.5106L371 22.6858L372 22.8229L373 22.9212L374 22.9803L375 23L376 22.9803L377 22.9212L378 22.8229L379 22.6858L380 22.5106L381 22.2978L382 22.0483L383 21.7631L384 21.4433L385 21.0902L386 20.7051L387 20.2897L388 19.8455L389 19.3742L390 18.8779L391 18.3583L392 17.8175L393 17.2578L394 16.6812L395 16.0902L396 15.4869L397 14.8738L398 14.2533L399 13.6279" stroke="#E3B637" stroke-width="5" stroke-miterlimit="10" stroke-linecap="round" stroke-linejoin="round"/>
</svg>
