<svg width="400" height="22" viewBox="0 0 400 22" fill="none" xmlns="http://www.w3.org/2000/svg">
<path d="M0 11L1 10.3721L2 9.74667L3 9.12619L4 8.5131L5 7.90983L6 7.31876L7 6.74221L8 6.18246L9 5.64173L10 5.12215L11 4.62576L12 4.15453L13 3.71031L14 3.29487L15 2.90983L16 2.55672L17 2.23693L18 1.95173L19 1.70223L20 1.48943L21 1.31417L22 1.17712L23 1.07885L24 1.01973L25 1L26 1.01973L27 1.07885L28 1.17712L29 1.31417L30 1.48943L31 1.70223L32 1.95173L33 2.23693L34 2.55672L35 2.90983L36 3.29487L37 3.71031L38 4.15453L39 4.62576L40 5.12215L41 5.64173L42 6.18246L43 6.74221L44 7.31876L45 7.90983L46 8.5131L47 9.12619L48 9.74667L49 10.3721L50 11L51 11.6279L52 12.2533L53 12.8738L54 13.4869L55 14.0902L56 14.6812L57 15.2578L58 15.8175L59 16.3583L60 16.8779L61 17.3742L62 17.8455L63 18.2897L64 18.7051L65 19.0902L66 19.4433L67 19.7631L68 20.0483L69 20.2978L70 20.5106L71 20.6858L72 20.8229L73 20.9212L74 20.9803L75 21L76 20.9803L77 20.9212L78 20.8229L79 20.6858L80 20.5106L81 20.2978L82 20.0483L83 19.7631L84 19.4433L85 19.0902L86 18.7051L87 18.2897L88 17.8455L89 17.3742L90 16.8779L91 16.3583L92 15.8175L93 15.2578L94 14.6812L95 14.0902L96 13.4869L97 12.8738L98 12.2533L99 11.6279L100 11L101 10.3721L102 9.74667L103 9.12619L104 8.5131L105 7.90983L106 7.31876L107 6.74221L108 6.18246L109 5.64173L110 5.12215L111 4.62576L112 4.15453L113 3.71031L114 3.29487L115 2.90983L116 2.55672L117 2.23693L118 1.95173L119 1.70223L120 1.48943L121 1.31417L122 1.17712L123 1.07885L124 1.01973L125 1L126 1.01973L127 1.07885L128 1.17712L129 1.31417L130 1.48943L131 1.70223L132 1.95173L133 2.23693L134 2.55672L135 2.90983L136 3.29487L137 3.71031L138 4.15453L139 4.62576L140 5.12215L141 5.64173L142 6.18246L143 6.74221L144 7.31876L145 7.90983L146 8.5131L147 9.12619L148 9.74667L149 10.3721L150 11L151 11.6279L152 12.2533L153 12.8738L154 13.4869L155 14.0902L156 14.6812L157 15.2578L158 15.8175L159 16.3583L160 16.8779L161 17.3742L162 17.8455L163 18.2897L164 18.7051L165 19.0902L166 19.4433L167 19.7631L168 20.0483L169 20.2978L170 20.5106L171 20.6858L172 20.8229L173 20.9212L174 20.9803L175 21L176 20.9803L177 20.9212L178 20.8229L179 20.6858L180 20.5106L181 20.2978L182 20.0483L183 19.7631L184 19.4433L185 19.0902L186 18.7051L187 18.2897L188 17.8455L189 17.3742L190 16.8779L191 16.3583L192 15.8175L193 15.2578L194 14.6812L195 14.0902L196 13.4869L197 12.8738L198 12.2533L199 11.6279L200 11L201 10.3721L202 9.74667L203 9.12619L204 8.5131L205 7.90983L206 7.31876L207 6.74221L208 6.18246L209 5.64173L210 5.12215L211 4.62576L212 4.15453L213 3.71031L214 3.29487L215 2.90983L216 2.55672L217 2.23693L218 1.95173L219 1.70223L220 1.48943L221 1.31417L222 1.17712L223 1.07885L224 1.01973L225 1L226 1.01973L227 1.07885L228 1.17712L229 1.31417L230 1.48943L231 1.70223L232 1.95173L233 2.23693L234 2.55672L235 2.90983L236 3.29487L237 3.71031L238 4.15453L239 4.62576L240 5.12215L241 5.64173L242 6.18246L243 6.74221L244 7.31876L245 7.90983L246 8.5131L247 9.12619L248 9.74667L249 10.3721L250 11L251 11.6279L252 12.2533L253 12.8738L254 13.4869L255 14.0902L256 14.6812L257 15.2578L258 15.8175L259 16.3583L260 16.8779L261 17.3742L262 17.8455L263 18.2897L264 18.7051L265 19.0902L266 19.4433L267 19.7631L268 20.0483L269 20.2978L270 20.5106L271 20.6858L272 20.8229L273 20.9212L274 20.9803L275 21L276 20.9803L277 20.9212L278 20.8229L279 20.6858L280 20.5106L281 20.2978L282 20.0483L283 19.7631L284 19.4433L285 19.0902L286 18.7051L287 18.2897L288 17.8455L289 17.3742L290 16.8779L291 16.3583L292 15.8175L293 15.2578L294 14.6812L295 14.0902L296 13.4869L297 12.8738L298 12.2533L299 11.6279L300 11L301 10.3721L302 9.74667L303 9.12619L304 8.5131L305 7.90983L306 7.31876L307 6.74221L308 6.18246L309 5.64173L310 5.12215L311 4.62576L312 4.15453L313 3.71031L314 3.29487L315 2.90983L316 2.55672L317 2.23693L318 1.95173L319 1.70223L320 1.48943L321 1.31417L322 1.17712L323 1.07885L324 1.01973L325 1L326 1.01973L327 1.07885L328 1.17712L329 1.31417L330 1.48943L331 1.70223L332 1.95173L333 2.23693L334 2.55672L335 2.90983L336 3.29487L337 3.71031L338 4.15453L339 4.62576L340 5.12215L341 5.64173L342 6.18246L343 6.74221L344 7.31876L345 7.90983L346 8.5131L347 9.12619L348 9.74667L349 10.3721L350 11L351 11.6279L352 12.2533L353 12.8738L354 13.4869L355 14.0902L356 14.6812L357 15.2578L358 15.8175L359 16.3583L360 16.8779L361 17.3742L362 17.8455L363 18.2897L364 18.7051L365 19.0902L366 19.4433L367 19.7631L368 20.0483L369 20.2978L370 20.5106L371 20.6858L372 20.8229L373 20.9212L374 20.9803L375 21L376 20.9803L377 20.9212L378 20.8229L379 20.6858L380 20.5106L381 20.2978L382 20.0483L383 19.7631L384 19.4433L385 19.0902L386 18.7051L387 18.2897L388 17.8455L389 17.3742L390 16.8779L391 16.3583L392 15.8175L393 15.2578L394 14.6812L395 14.0902L396 13.4869L397 12.8738L398 12.2533L399 11.6279" stroke="#E3B637" stroke-miterlimit="10" stroke-linecap="round" stroke-linejoin="round"/>
</svg>
