<svg xmlns="http://www.w3.org/2000/svg" viewBox="0 0 183.02 176.04"><defs><style>.cls-1{fill:none;stroke:#fff;stroke-miterlimit:10;stroke-width:6px;}</style></defs><g id="レイヤー_2" data-name="レイヤー 2"><g id="ホーム_pc_" data-name="ホーム(pc)"><path class="cls-1" d="M88.39,6l34.54,57.08a19.74,19.74,0,0,0-1.26,35.23h0a19.76,19.76,0,0,0,21.57-1.65l34.53,57.08-66.7,1.36A19.75,19.75,0,0,0,100.93,136h0a19.73,19.73,0,0,0-29.08,19.91L5.13,157.27,37.24,98.93a19.74,19.74,0,1,0,19-34.59Z"/><path class="cls-1" d="M111.45,81.42a19.74,19.74,0,0,0,10.22,16.89L100.92,136a19.71,19.71,0,0,0-19.73.4L57.92,97.93A19.81,19.81,0,0,0,66.5,82.34Z"/><path class="cls-1" d="M56.28,64.34a19.74,19.74,0,1,1-26.81,7.77A19.74,19.74,0,0,1,56.28,64.34Z"/><path class="cls-1" d="M140.71,63.72a19.74,19.74,0,1,1-19,34.59h0a19.74,19.74,0,1,1,19-34.59Z"/><path class="cls-1" d="M100.92,136h0a19.75,19.75,0,1,1-19.74.4A19.75,19.75,0,0,1,100.93,136Z"/></g></g></svg>