<svg xmlns="http://www.w3.org/2000/svg" viewBox="0 0 174.05 180.64"><defs><style>.cls-1{fill:none;stroke:#fff;stroke-miterlimit:10;stroke-width:6px;}</style></defs><g id="レイヤー_2" data-name="レイヤー 2"><g id="ホーム_pc_" data-name="ホーム(pc)"><path class="cls-1" d="M167.47,4.64,156.66,70.48a19.74,19.74,0,0,0-23.83,26h0A19.75,19.75,0,0,0,150.3,109.2L139.5,175,87.89,132.76a19.75,19.75,0,0,0,4.69-21.12h0a19.74,19.74,0,0,0-35-3.75L5.92,65.61,68.22,42.1a19.74,19.74,0,1,0,36.94-13.94Z"/><path class="cls-1" d="M136,77a19.71,19.71,0,0,0-3.2,19.48L92.58,111.64A19.73,19.73,0,0,0,77.31,99.13l7.28-44.37a19.74,19.74,0,0,0,16.65-6.28Z"/><path class="cls-1" d="M105.16,28.16a19.74,19.74,0,1,1-25.44-11.5A19.74,19.74,0,0,1,105.16,28.16Z"/><path class="cls-1" d="M169.77,82.51a19.74,19.74,0,1,1-36.94,13.94h0a19.74,19.74,0,1,1,36.94-13.94Z"/><path class="cls-1" d="M92.58,111.64h0A19.74,19.74,0,1,1,77.31,99.13,19.75,19.75,0,0,1,92.58,111.64Z"/></g></g></svg>