<svg xmlns="http://www.w3.org/2000/svg" viewBox="0 0 554.47 554.47"><defs><style>.cls-1{font-size:40px;font-family:HWTMardell, HWT Mardell, hwt-mardell, sans-serif;}.cls-1,.cls-2{fill:#c6324d;}</style></defs><title>アセット 1</title><g id="レイヤー_2" data-name="レイヤー 2"><g id="レイヤー_2-2" data-name="レイヤー 2"><text class="cls-1" transform="translate(335.93 41.18) rotate(16.17)">f</text><text class="cls-1" transform="matrix(0.93, 0.36, -0.36, 0.93, 353.6, 46.14)">d</text><text class="cls-1" transform="translate(376.06 55.13) rotate(24.96)">i</text><text class="cls-1" transform="translate(382.97 57.83) rotate(29.42)">o</text><text class="cls-1" transform="translate(409.21 72.75) rotate(35.93)">a</text><text class="cls-1" transform="translate(429.61 87.69) rotate(41.05)">f</text><text class="cls-1" transform="matrix(0.7, 0.71, -0.71, 0.7, 443.5, 99.78)">j</text><text class="cls-1" transform="matrix(0.65, 0.76, -0.76, 0.65, 456.23, 112.58)">e</text><text class="cls-1" transform="translate(468.75 127.59) rotate(52.89)">i</text><text class="cls-1" transform="translate(473.59 133.23) rotate(57.33)">o</text><text class="cls-1" transform="translate(489.79 158.67) rotate(63.85)">a</text><text class="cls-1" transform="matrix(0.36, 0.93, -0.93, 0.36, 500.82, 181.42)">f</text><text class="cls-1" transform="translate(507.49 198.52) rotate(73.87)">t</text><text class="cls-1" transform="translate(513.85 220.04) rotate(79.65)">h</text><text class="cls-1" transform="matrix(0.07, 1, -1, 0.07, 518.57, 245.83)">n</text><text class="cls-1" transform="translate(520.5 271.21) rotate(91.6)">a</text><text class="cls-1" transform="translate(519.69 296.46) rotate(96.81)">e</text><text class="cls-1" transform="matrix(-0.22, 0.98, -0.98, -0.22, 517.72, 315.63)">o</text><text class="cls-1" transform="translate(510.64 345.17) rotate(107.14)">i</text><text class="cls-1" transform="translate(508.71 352.41) rotate(110.9)">d</text><text class="cls-1" transform="translate(500.22 374.83) rotate(116.73)">v</text><text class="cls-1" transform="matrix(-0.54, 0.84, -0.84, -0.54, 488.92, 397.35)">n</text><text class="cls-1" transform="matrix(-0.62, 0.78, -0.78, -0.62, 475.21, 418.76)">a</text><text class="cls-1" transform="translate(459.46 438.46) rotate(134.41)">d</text><text class="cls-1" transform="matrix(-0.74, 0.67, -0.67, -0.74, 442.35, 455.56)">i</text><text class="cls-1" transform="translate(436.99 460.8) rotate(142)">n</text><text class="cls-1" transform="matrix(-0.84, 0.54, -0.54, -0.84, 416.81, 476.4)">f</text><text class="cls-1" transform="matrix(-0.89, 0.46, -0.46, -0.89, 401.52, 486.52)">h</text><text class="cls-1" transform="matrix(-0.93, 0.37, -0.37, -0.93, 378.29, 498.67)">a</text><text class="cls-1" transform="translate(354.54 507.71) rotate(162.41)">i</text><text class="cls-1" transform="translate(347.61 510.4) rotate(166.9)">o</text><text class="cls-1" transform="matrix(-0.99, 0.12, -0.12, -0.99, 318.18, 517.11)">d</text><text class="cls-1" transform="matrix(-1, 0.03, -0.03, -1, 294.28, 519.83)">f</text><text class="cls-1" transform="matrix(-1, -0.06, 0.06, -1, 275.95, 520.58)">n</text><text class="cls-1" transform="matrix(-0.99, -0.15, 0.15, -0.99, 250.5, 518.98)">e</text><text class="cls-1" transform="translate(231.35 516.21) rotate(-166.36)">r</text><text class="cls-1" transform="matrix(-0.95, -0.3, 0.3, -0.95, 208.62, 510.44)">i</text><text class="cls-1" transform="translate(201.4 508.53) rotate(-158.79)">a</text><text class="cls-1" transform="translate(177.89 499.6) rotate(-152.25)">g</text><text class="cls-1" transform="matrix(-0.83, -0.56, 0.56, -0.83, 151.31, 485.43)">k</text><text class="cls-1" transform="translate(132.33 472.54) rotate(-141.21)">j</text><text class="cls-1" transform="translate(118.2 461.43) rotate(-136.11)">n</text><text class="cls-1" transform="translate(99.89 443.65) rotate(-130.86)">e</text><text class="cls-1" transform="matrix(-0.57, -0.82, 0.82, -0.57, 86.97, 429.43)">w</text><text class="cls-1" transform="translate(67.57 400.83) rotate(-117.52)">a</text><text class="cls-1" transform="translate(56 378.35) rotate(-112.36)">f</text><text class="cls-1" transform="translate(49.08 361.15) rotate(-109.26)">i</text><text class="cls-1" transform="translate(46.19 354.3) rotate(-104.77)">o</text><text class="cls-1" transform="translate(38.74 324.98) rotate(-99.06)">j</text><text class="cls-1" transform="translate(35.72 307.25) rotate(-93.98)">v</text><text class="cls-1" transform="translate(33.94 282.11) rotate(-88.11)">n</text><text class="cls-1" transform="matrix(0.14, -0.99, 0.99, 0.14, 34.75, 256.68)">a</text><text class="cls-1" transform="matrix(0.2, -0.98, 0.98, 0.2, 38.49, 231.54)">i</text><text class="cls-1" transform="translate(39.53 224.18) rotate(-73.81)">o</text><text class="cls-1" transform="translate(48.17 195.24) rotate(-67.82)">s</text><text class="cls-1" transform="matrix(0.46, -0.89, 0.89, 0.46, 55.74, 176.38)">d</text><text class="cls-1" transform="translate(66.91 155.07) rotate(-57.57)">f</text><text class="cls-1" transform="translate(76.78 139.52) rotate(-53.28)">j</text><text class="cls-1" transform="matrix(0.68, -0.73, 0.73, 0.68, 87.09, 124.89)">w</text><text class="cls-1" transform="translate(110.91 99.79) rotate(-40.83)">e</text><text class="cls-1" transform="matrix(0.81, -0.58, 0.58, 0.81, 125.45, 87.02)">a</text><text class="cls-1" transform="translate(146.26 72.48) rotate(-31.73)">i</text><text class="cls-1" transform="matrix(0.89, -0.46, 0.46, 0.89, 152.33, 68.17)">o</text><text class="cls-1" transform="matrix(0.93, -0.37, 0.37, 0.93, 179.33, 54.56)">f</text><text class="cls-1" transform="translate(196.46 47.79) rotate(-17.19)">j</text><text class="cls-1" transform="translate(213.41 42.03) rotate(-10.96)">w</text><text class="cls-1" transform="matrix(1, -0.07, 0.07, 1, 247.36, 35.71)">a</text><text class="cls-1" transform="translate(272.71 34.3) rotate(-0.93)">i</text><text class="cls-1" transform="translate(280.17 33.76) rotate(4.27)">o</text><text class="cls-1" transform="translate(310.3 36.26) rotate(10.09)">e</text><path class="cls-2" d="M277.23,52.37A224.18,224.18,0,1,1,189.71,70a223.55,223.55,0,0,1,87.52-17.67m0-4.14c-126.47,0-229,102.53-229,229s102.53,229,229,229,229-102.52,229-229-102.52-229-229-229Z"/></g></g></svg>
