<svg xmlns="http://www.w3.org/2000/svg" viewBox="0 0 637.93 611.97"><defs><style>.cls-1,.cls-2{fill:none;stroke:#fff;stroke-miterlimit:10;}.cls-1{stroke-width:30px;}.cls-2{stroke-width:29.58px;}</style></defs><title>アセット 7</title><g id="レイヤー_2" data-name="レイヤー 2"><g id="レイヤー_4" data-name="レイヤー 4"><path class="cls-1" d="M25.82,71.43l226.41,2.38a67,67,0,0,0,99.38,66.58h0A67,67,0,0,0,385.4,75.21l226.39,2.38L496.53,272.46a67,67,0,0,0-73.24-4.88h0a67,67,0,0,0,5.46,119.5L313.47,582,202.53,385.07a67,67,0,1,0-65.77-116.74Z"/><path class="cls-2" d="M284.62,139.68a67,67,0,0,0,67,.71l71.67,127.2a67,67,0,0,0-34.11,57.67l-152.58-1.61A67.12,67.12,0,0,0,206.94,271Z"/><path class="cls-1" d="M136.76,268.33a67,67,0,1,1-25.49,91.26A67,67,0,0,1,136.76,268.33Z"/><path class="cls-1" d="M285.84,23.64a67,67,0,1,1,65.78,116.74h0A67,67,0,0,1,285.84,23.64Z"/><path class="cls-1" d="M423.28,267.59h0a67,67,0,1,1-34.12,57.68A67,67,0,0,1,423.29,267.58Z"/></g></g></svg>