<svg xmlns="http://www.w3.org/2000/svg" viewBox="0 0 637.96 619.49"><defs><style>.cls-1,.cls-2{fill:none;stroke:#fff;stroke-miterlimit:10;}.cls-1{stroke-width:30px;}.cls-2{stroke-width:29.58px;}</style></defs><title>アセット 8</title><g id="レイヤー_2" data-name="レイヤー 2"><g id="レイヤー_4" data-name="レイヤー 4"><path class="cls-1" d="M612,82,498.77,278.09A67,67,0,0,0,392,332h0a67,67,0,0,0,40.2,61.42L319,589.49,205.78,393.42A67,67,0,0,0,246,332h0a67,67,0,0,0-106.79-53.9L26,82H252a67,67,0,1,0,134,0Z"/><path class="cls-2" d="M425.48,274A67,67,0,0,0,392,332H246a67,67,0,0,0-33.5-58l76.3-132.15a67.1,67.1,0,0,0,60.4,0Z"/><path class="cls-1" d="M386,82a67,67,0,1,1-67-67A67,67,0,0,1,386,82Z"/><path class="cls-1" d="M526,332a67,67,0,1,1-134,0h0a67,67,0,0,1,134,0Z"/><path class="cls-1" d="M246,332h0a67,67,0,1,1-33.5-58A67,67,0,0,1,246,332Z"/></g></g></svg>