<svg xmlns="http://www.w3.org/2000/svg" viewBox="0 0 1336.91 1336.91"><defs><style>.cls-1{font-size:79.58px;font-family:HWTMardell, HWT Mardell;}.cls-1,.cls-2{fill:#c6324d;}.cls-3{fill:none;stroke:#c6324d;stroke-miterlimit:10;stroke-width:5.97px;}</style></defs><title>アセット 4</title><g id="レイヤー_2" data-name="レイヤー 2"><g id="レイヤー_2-2" data-name="レイヤー 2"><text class="cls-1" transform="translate(1152.37 668.37) rotate(92.15)">J</text><text class="cls-1" transform="translate(1151.35 704.14) rotate(97.14)">D</text><text class="cls-1" transform="translate(1144.85 751.81) rotate(100.9)">I</text><text class="cls-1" transform="translate(1142.32 766.66) rotate(103.99)">F</text><text class="cls-1" transform="translate(1134.17 802.08) rotate(109.7)">O</text><text class="cls-1" transform="translate(1113.75 858.52) rotate(116.19)">A</text><text class="cls-1" transform="translate(1091.31 903.54) rotate(121.26)">J</text><text class="cls-1" transform="translate(1072.29 934.35) rotate(124.28)">I</text><text class="cls-1" transform="translate(1064.09 946.95) rotate(127.34)">F</text><text class="cls-1" transform="matrix(-0.68, 0.74, -0.74, -0.68, 1042.31, 976.2)">H</text><text class="cls-1" transform="translate(1007.04 1014.62) rotate(138.63)">A</text><text class="cls-1" transform="matrix(-0.82, 0.58, -0.58, -0.82, 969.47, 1047.8)">N</text><text class="cls-1" transform="matrix(-0.87, 0.5, -0.5, -0.87, 927.98, 1076.98)">E</text><text class="cls-1" transform="translate(894.8 1096.44) rotate(155)">R</text><text class="cls-1" transform="translate(852.31 1115.72) rotate(158.66)">I</text><text class="cls-1" transform="matrix(-0.95, 0.3, -0.3, -0.95, 838.64, 1121.67)">U</text><text class="cls-1" transform="translate(793.17 1136.53) rotate(168.67)">G</text><text class="cls-1" transform="matrix(-1, 0.08, -0.08, -1, 734.43, 1148.11)">V</text><text class="cls-1" transform="translate(684.5 1152.44) rotate(-178.86)">N</text><text class="cls-1" transform="translate(633.92 1151.49) rotate(-172.85)">A</text><text class="cls-1" transform="matrix(-0.98, -0.22, 0.22, -0.98, 584.1, 1145.07)">S</text><text class="cls-1" transform="translate(544.65 1136.89) rotate(-161.5)">O</text><text class="cls-1" transform="translate(487.81 1117.59) rotate(-155.15)">D</text><text class="cls-1" transform="translate(444.34 1096.9) rotate(-151.44)">I</text><text class="cls-1" transform="matrix(-0.85, -0.52, 0.52, -0.85, 430.97, 1089.97)">F</text><text class="cls-1" transform="translate(399.74 1070.77) rotate(-144.1)">J</text><text class="cls-1" transform="translate(370.61 1049.85) rotate(-139.59)">P</text><text class="cls-1" transform="translate(339.62 1023.85) rotate(-134.23)">A</text><text class="cls-1" transform="matrix(-0.61, -0.79, 0.79, -0.61, 304.46, 988.26)">O</text><text class="cls-1" transform="translate(267.96 940.59) rotate(-121.28)">D</text><text class="cls-1" transform="translate(243.41 899.19) rotate(-117.52)">I</text><text class="cls-1" transform="translate(236.2 885.99) rotate(-114.46)">J</text><text class="cls-1" transform="matrix(-0.32, -0.95, 0.95, -0.32, 220.83, 853.8)">G</text><text class="cls-1" transform="matrix(-0.21, -0.98, 0.98, -0.21, 201.72, 797.08)">N</text><text class="cls-1" transform="matrix(-0.12, -0.99, 0.99, -0.12, 190.94, 747.55)">T</text><text class="cls-1" transform="translate(185.49 703.27) rotate(-91.13)">A</text><text class="cls-1" transform="matrix(0.07, -1, 1, 0.07, 184.72, 653.01)">E</text><text class="cls-1" transform="translate(187.29 614.64) rotate(-80.78)">R</text><text class="cls-1" transform="translate(195.24 568.67) rotate(-77.11)">I</text><text class="cls-1" transform="translate(198 554.02) rotate(-73.36)">U</text><text class="cls-1" transform="translate(211.96 508.01) rotate(-68.36)">F</text><text class="cls-1" transform="translate(225.06 473.98) rotate(-63.22)">N</text><text class="cls-1" transform="matrix(0.54, -0.84, 0.84, 0.54, 247.81, 428.78)">A</text><text class="cls-1" transform="matrix(0.63, -0.78, 0.78, 0.63, 274.54, 386.49)">O</text><text class="cls-1" transform="translate(312.69 340.11) rotate(-44.45)">D</text><text class="cls-1" transform="matrix(0.76, -0.65, 0.65, 0.76, 347.4, 306.78)">I</text><text class="cls-1" transform="matrix(0.79, -0.61, 0.61, 0.79, 358.6, 296.73)">F</text><text class="cls-1" transform="translate(387.61 274.35) rotate(-33.29)">J</text><text class="cls-1" transform="translate(417.29 254.41) rotate(-28.15)">A</text><text class="cls-1" transform="matrix(0.92, -0.38, 0.38, 0.92, 461.5, 230.75)">D</text><text class="cls-1" transform="translate(505.77 212.69) rotate(-17.13)">S</text><text class="cls-1" transform="matrix(0.97, -0.23, 0.23, 0.97, 544.67, 200.93)">I</text><text class="cls-1" transform="matrix(0.98, -0.19, 0.19, 0.98, 559.44, 197.08)">F</text><text class="cls-1" transform="translate(595.34 190.08) rotate(-6.29)">P</text><text class="cls-1" transform="matrix(1, -0.01, 0.01, 1, 635.39, 185.07)">O</text><text class="cls-1" transform="translate(695.58 185.28) rotate(5.4)">J</text><text class="cls-1" transform="matrix(0.98, 0.18, -0.18, 0.98, 731.2, 188.27)">A</text><text class="cls-1" transform="translate(780.52 197.43) rotate(16.34)">D</text><text class="cls-1" transform="translate(826.36 210.99) rotate(21.56)">S</text><text class="cls-1" transform="translate(864.03 225.54) rotate(26.93)">N</text><text class="cls-1" transform="matrix(0.86, 0.51, -0.51, 0.86, 909.27, 249.18)">I</text><text class="cls-1" transform="matrix(0.82, 0.58, -0.58, 0.82, 922.43, 255.95)">O</text><text class="cls-1" transform="matrix(0.76, 0.66, -0.66, 0.76, 971.29, 291.1)">F</text><text class="cls-1" transform="translate(999.07 314.69) rotate(46.09)">N</text><text class="cls-1" transform="matrix(0.64, 0.77, -0.77, 0.64, 1034.04, 351.85)">I</text><text class="cls-1" transform="translate(1044.09 362.82) rotate(53.92)">N</text><text class="cls-1" transform="translate(1073.66 404.4) rotate(57.85)">I</text><text class="cls-1" transform="translate(1082.31 416.4) rotate(62.34)">O</text><text class="cls-1" transform="matrix(0.36, 0.93, -0.93, 0.36, 1110, 469.65)">N</text><text class="cls-1" transform="translate(1127.99 517.1) rotate(73.99)">J</text><text class="cls-1" transform="translate(1138.12 551.49) rotate(78.74)">K</text><text class="cls-1" transform="translate(1147.13 596.12) rotate(84.25)">U</text><text class="cls-1" transform="matrix(0.03, 1, -1, 0.03, 1151.46, 644.28)">I</text><path class="cls-2" d="M668.5,221.06a445.9,445.9,0,1,1-174.13,35.15A444.61,444.61,0,0,1,668.5,221.06m0-8.24c-251.62,0-455.6,204-455.6,455.6s204,455.6,455.6,455.6,455.6-204,455.6-455.6-204-455.6-455.6-455.6Z"/><circle class="cls-3" cx="668.5" cy="668.42" r="569"/></g></g></svg>