<svg xmlns="http://www.w3.org/2000/svg" viewBox="0 0 843.49 843.49"><defs><style>.cls-1{font-size:50.21px;font-family:HWTMardell, HWT Mardell, hwt-mardell, sans-serif;}.cls-1,.cls-2{fill:#c6324d;}</style></defs><title>アセット 2</title><g id="レイヤー_2" data-name="レイヤー 2"><g id="レイヤー_2-2" data-name="レイヤー 2"><text class="cls-1" transform="translate(727.24 421.59) rotate(92.85)">D</text><text class="cls-1" transform="translate(725.82 451.64) rotate(98.69)">A</text><text class="cls-1" transform="matrix(-0.24, 0.97, -0.97, -0.24, 720.87, 482.97)">F</text><text class="cls-1" transform="matrix(-0.32, 0.95, -0.95, -0.32, 715.55, 505.37)">D</text><text class="cls-1" transform="translate(705.9 533.87) rotate(114.62)">A</text><text class="cls-1" transform="translate(692.28 562.74) rotate(118.48)">I</text><text class="cls-1" transform="translate(688.36 571.19) rotate(122.9)">O</text><text class="cls-1" transform="translate(667.63 602.92) rotate(129.24)">D</text><text class="cls-1" transform="matrix(-0.7, 0.72, -0.72, -0.7, 648.43, 626.22)">J</text><text class="cls-1" transform="translate(632.65 642.5) rotate(138.49)">F</text><text class="cls-1" transform="matrix(-0.78, 0.62, -0.62, -0.78, 615.12, 657.79)">I</text><text class="cls-1" transform="translate(608.19 664.03) rotate(146.06)">O</text><text class="cls-1" transform="translate(576.7 685.08) rotate(152.62)">A</text><text class="cls-1" transform="translate(548.58 699.61) rotate(158.35)">R</text><text class="cls-1" transform="matrix(-0.97, 0.26, -0.26, -0.97, 521.76, 710.77)">W</text><text class="cls-1" transform="translate(479.68 721.49) rotate(171.34)">E</text><text class="cls-1" transform="translate(455.77 725.37) rotate(176.71)">H</text><text class="cls-1" transform="matrix(-1, -0.05, 0.05, -1, 422.92, 727.28)">N</text><text class="cls-1" transform="matrix(-0.99, -0.15, 0.15, -0.99, 390.98, 725.65)">T</text><text class="cls-1" transform="translate(362.91 721.16) rotate(-167.91)">I</text><text class="cls-1" transform="translate(353.7 719.78) rotate(-163.45)">O</text><text class="cls-1" transform="translate(317.45 708.89) rotate(-156.92)">N</text><text class="cls-1" transform="translate(287.95 695.91) rotate(-153.03)">I</text><text class="cls-1" transform="translate(279.4 692.21) rotate(-148.6)">O</text><text class="cls-1" transform="matrix(-0.79, -0.61, 0.61, -0.79, 247.14, 672.33)">D</text><text class="cls-1" transform="matrix(-0.73, -0.68, 0.68, -0.73, 223.34, 653.76)">F</text><text class="cls-1" transform="translate(206.27 638.32) rotate(-132.15)">A</text><text class="cls-1" transform="translate(185.1 614.76) rotate(-126.76)">S</text><text class="cls-1" transform="matrix(-0.52, -0.85, 0.85, -0.52, 169.72, 594.42)">D</text><text class="cls-1" transform="translate(154.06 568.6) rotate(-116.49)">L</text><text class="cls-1" transform="matrix(-0.38, -0.93, 0.93, -0.38, 143.86, 548.19)">J</text><text class="cls-1" transform="translate(135.27 527.23) rotate(-107.93)">F</text><text class="cls-1" transform="matrix(-0.22, -0.97, 0.97, -0.22, 127.98, 505.42)">A</text><text class="cls-1" transform="translate(121.01 474.47) rotate(-97.55)">P</text><text class="cls-1" transform="translate(117.65 449.07) rotate(-92.85)">E</text><text class="cls-1" transform="translate(116.05 424.93) rotate(-86.98)">O</text><text class="cls-1" transform="translate(118.24 387.12) rotate(-80.65)">R</text><text class="cls-1" transform="matrix(0.23, -0.97, 0.97, 0.23, 123.31, 358.16)">:</text><text class="cls-1" transform="translate(125.31 348.17) rotate(-73.29)">T</text><text class="cls-1" transform="translate(133.37 321.16) rotate(-67.95)">K</text><text class="cls-1" transform="matrix(0.43, -0.9, 0.9, 0.43, 144.51, 294.42)">;</text><text class="cls-1" transform="translate(148.53 285.16) rotate(-60.38)">A</text><text class="cls-1" transform="translate(164.32 257.65) rotate(-55.16)">E</text><text class="cls-1" transform="matrix(0.64, -0.77, 0.77, 0.64, 178.07, 237.65)">R</text><text class="cls-1" transform="translate(196.83 215.24) rotate(-45.03)">P</text><text class="cls-1" transform="translate(214.56 196.97) rotate(-39.07)">O</text><text class="cls-1" transform="matrix(0.84, -0.55, 0.55, 0.84, 244.24, 173.31)">J</text><text class="cls-1" transform="translate(263.17 160.82) rotate(-29.03)">F</text><text class="cls-1" transform="translate(283.14 149.46) rotate(-23.84)">N</text><text class="cls-1" transform="matrix(0.95, -0.31, 0.31, 0.95, 312.33, 136.53)">V</text><text class="cls-1" transform="matrix(0.97, -0.26, 0.26, 0.97, 342.85, 127.14)">I</text><text class="cls-1" transform="translate(351.72 124.24) rotate(-9.67)">O</text><text class="cls-1" transform="translate(389.06 118.01) rotate(-3.16)">A</text><text class="cls-1" transform="translate(420.73 116.4) rotate(2.13)">E</text><text class="cls-1" transform="translate(444.96 117.13) rotate(7.27)">D</text><text class="cls-1" transform="translate(474.91 121.09) rotate(12.26)">J</text><text class="cls-1" transform="translate(497.04 125.86) rotate(16.56)">F</text><text class="cls-1" transform="translate(519.15 132) rotate(22.27)">O</text><text class="cls-1" transform="translate(554.16 146.52) rotate(28.61)">D</text><text class="cls-1" transform="translate(580.61 161.03) rotate(33.8)">S</text><text class="cls-1" transform="matrix(0.78, 0.62, -0.62, 0.78, 601.86, 175.28)">F</text><text class="cls-1" transform="matrix(0.74, 0.68, -0.68, 0.74, 619.99, 189.61)">J</text><text class="cls-1" transform="translate(636.7 204.87) rotate(47.16)">P</text><text class="cls-1" transform="translate(654.28 223.28) rotate(53.13)">O</text><text class="cls-1" transform="translate(676.89 253.65) rotate(59.69)">A</text><text class="cls-1" transform="translate(692.79 281.07) rotate(65.1)">S</text><text class="cls-1" transform="matrix(0.34, 0.94, -0.94, 0.34, 703.66, 304.14)">D</text><text class="cls-1" transform="matrix(0.26, 0.97, -0.97, 0.26, 713.68, 332.66)">F</text><text class="cls-1" transform="translate(719.92 354.71) rotate(80.84)">M</text><text class="cls-1" transform="matrix(0.06, 1, -1, 0.06, 725.54, 391.63)">J</text><path class="cls-2" d="M421.79,139.53a281.37,281.37,0,1,1-109.87,22.18,280.37,280.37,0,0,1,109.87-22.18m0-5.2C263,134.33,134.34,263,134.34,421.78S263,709.24,421.79,709.24s287.45-128.7,287.45-287.46S580.54,134.33,421.79,134.33Z"/></g></g></svg>
