<svg xmlns="http://www.w3.org/2000/svg" viewBox="0 0 1064.36 1064.35"><defs><style>.cls-1{font-size:63.36px;font-family:HWTMardell, HWT Mardell, hwt-mardell, sans-serif;}.cls-1,.cls-2{fill:#c6324d;}</style></defs><title>アセット 3</title><g id="レイヤー_2" data-name="レイヤー 2"><g id="レイヤー_2-2" data-name="レイヤー 2"><text class="cls-1" transform="matrix(-0.04, 1, -1, -0.04, 917.45, 532.09)">F</text><text class="cls-1" transform="matrix(-0.13, 0.99, -0.99, -0.13, 916.58, 561.14)">D</text><text class="cls-1" transform="translate(911.62 598.92) rotate(102.2)">J</text><text class="cls-1" transform="matrix(-0.3, 0.95, -0.95, -0.3, 905.89, 626.81)">A</text><text class="cls-1" transform="translate(894.32 664.92) rotate(113.81)">O</text><text class="cls-1" transform="matrix(-0.5, 0.87, -0.87, -0.5, 874.78, 708.57)">K</text><text class="cls-1" transform="translate(856.49 739.98) rotate(124.83)">L</text><text class="cls-1" transform="translate(840.05 763.65) rotate(129.08)">J</text><text class="cls-1" transform="translate(822.34 785.95) rotate(134.19)">N</text><text class="cls-1" transform="translate(794.53 814.96) rotate(140.74)">G</text><text class="cls-1" transform="translate(757.26 844.88) rotate(146.48)">F</text><text class="cls-1" transform="translate(732.64 860.92) rotate(149.58)">I</text><text class="cls-1" transform="matrix(-0.89, 0.45, -0.45, -0.89, 722.65, 867.32)">U</text><text class="cls-1" transform="translate(688.61 884.51) rotate(159.18)">A</text><text class="cls-1" transform="translate(651.21 898.69) rotate(164.84)">R</text><text class="cls-1" transform="translate(615.59 908.25) rotate(169.78)">E</text><text class="cls-1" transform="matrix(-1, 0.08, -0.08, -1, 585.54, 913.98)">H</text><text class="cls-1" transform="translate(544.07 917.3) rotate(-179.41)">B</text><text class="cls-1" transform="matrix(-0.99, -0.1, 0.1, -0.99, 512.79, 917.23)">A</text><text class="cls-1" transform="translate(473.07 913.16) rotate(-168.09)">V</text><text class="cls-1" transform="translate(433.79 904.41) rotate(-164.21)">I</text><text class="cls-1" transform="translate(422.28 901.92) rotate(-159.75)">O</text><text class="cls-1" transform="matrix(-0.9, -0.44, 0.44, -0.9, 377.47, 884.94)">F</text><text class="cls-1" transform="translate(351.22 872.28) rotate(-149.52)">S</text><text class="cls-1" transform="matrix(-0.81, -0.58, 0.58, -0.81, 323.39, 856.1)">d</text><text class="cls-1" transform="matrix(-0.75, -0.66, 0.66, -0.75, 292.51, 833.94)">k</text><text class="cls-1" transform="translate(265.23 809.92) rotate(-133.99)">l</text><text class="cls-1" transform="translate(245.12 789.49) rotate(-128.89)">C</text><text class="cls-1" transform="translate(220.2 758.71) rotate(-122.93)">V</text><text class="cls-1" transform="translate(198.46 725.25) rotate(-116.93)">N</text><text class="cls-1" transform="translate(180.15 689.41) rotate(-110.83)">H</text><text class="cls-1" transform="translate(165.73 650.1) rotate(-106.86)">I</text><text class="cls-1" transform="translate(161.81 638.88) rotate(-103.05)">U</text><text class="cls-1" transform="translate(153.13 601.66) rotate(-97.64)">R</text><text class="cls-1" transform="translate(148.31 565.09) rotate(-92.61)">E</text><text class="cls-1" transform="translate(146.91 534.38) rotate(-88.13)">F</text><text class="cls-1" transform="matrix(0.13, -0.99, 0.99, 0.13, 147.35, 505.43)">M</text><text class="cls-1" transform="matrix(0.24, -0.97, 0.97, 0.24, 153.67, 458.91)">A</text><text class="cls-1" transform="translate(163.41 420.14) rotate(-70.24)">R</text><text class="cls-1" transform="translate(175.83 385.48) rotate(-64.82)">K</text><text class="cls-1" transform="translate(191.41 352.62) rotate(-60.01)">L</text><text class="cls-1" transform="matrix(0.58, -0.81, 0.81, 0.58, 205.23, 327.62)">G</text><text class="cls-1" transform="translate(233.43 289.02) rotate(-48.72)">J</text><text class="cls-1" transform="translate(251.98 267.43) rotate(-43.6)">N</text><text class="cls-1" transform="matrix(0.79, -0.61, 0.61, 0.79, 281.11, 239.61)">A</text><text class="cls-1" transform="matrix(0.83, -0.56, 0.56, 0.83, 313.29, 215.4)">I</text><text class="cls-1" transform="translate(322.64 208.26) rotate(-29.23)">O</text><text class="cls-1" transform="matrix(0.92, -0.4, 0.4, 0.92, 364.61, 185.23)">E</text><text class="cls-1" transform="translate(392.65 172.92) rotate(-18.35)">R</text><text class="cls-1" transform="translate(427.6 161.3) rotate(-13)">K</text><text class="cls-1" transform="translate(462.92 153.05) rotate(-7.52)">D</text><text class="cls-1" transform="translate(500.68 148.16) rotate(-2.28)">S</text><text class="cls-1" transform="translate(532.7 146.41) rotate(3.69)">G</text><text class="cls-1" transform="matrix(0.98, 0.19, -0.19, 0.98, 580.17, 149.42)">M</text><text class="cls-1" transform="matrix(0.96, 0.28, -0.28, 0.96, 626.38, 158.61)">F</text><text class="cls-1" transform="translate(654.3 166.55) rotate(21.57)">A</text><text class="cls-1" transform="translate(691.46 181.38) rotate(26.91)">P</text><text class="cls-1" transform="matrix(0.85, 0.53, -0.53, 0.85, 720.28, 195.82)">D</text><text class="cls-1" transform="matrix(0.8, 0.6, -0.6, 0.8, 752.48, 216.21)">F</text><text class="cls-1" transform="translate(775.83 233.49) rotate(42.2)">A</text><text class="cls-1" transform="matrix(0.66, 0.75, -0.75, 0.66, 805.52, 260.01)">O</text><text class="cls-1" transform="translate(836.88 296.12) rotate(54.99)">K</text><text class="cls-1" transform="translate(857.74 325.75) rotate(60.56)">D</text><text class="cls-1" transform="translate(876.32 359.01) rotate(65.54)">J</text><text class="cls-1" transform="translate(888.2 385.04) rotate(69.85)">F</text><text class="cls-1" transform="matrix(0.26, 0.97, -0.97, 0.26, 898.51, 412.16)">O</text><text class="cls-1" transform="translate(910.39 458.44) rotate(81.62)">T</text><text class="cls-1" transform="translate(915.55 493.69) rotate(86.67)">P</text><path class="cls-2" d="M532.22,176a355,355,0,1,1-138.63,28,354,354,0,0,1,138.63-28m0-6.55c-200.32,0-362.71,162.39-362.71,362.71S331.9,894.86,532.22,894.86,894.94,732.47,894.94,532.14,732.55,169.43,532.22,169.43Z"/></g></g></svg>
